<svg width="259" height="331" viewBox="0 0 259 331" fill="none" xmlns="http://www.w3.org/2000/svg">
<rect width="259" height="331" fill="white"/>
<rect x="2.5" y="2.5" width="254" height="326" stroke="black" stroke-width="5"/>
<path d="M92.48 40.9426C88.4107 46.6346 79.1674 60.7485 74.3424 68.7638C72.7146 71.4936 70.7381 74.5719 69.9824 75.5593L68.5872 77.476L61.8437 69.7512C55.4491 62.4909 44.2875 50.3519 38.2997 44.1952L35.5675 41.3492L31.9051 44.3695C29.8704 46.0538 28.1845 47.5639 28.0683 47.7963C27.8939 48.319 33.9397 55.5211 41.6133 63.8268C44.8107 67.3117 49.8101 72.8876 52.6587 76.1982C55.5653 79.5089 58.8789 83.3423 60.0997 84.7943L62.3669 87.3499L60.3323 90.0798C56.6699 95.1909 44.8107 113.022 44.8107 113.487C44.8107 114.242 52.4261 119.411 53.1819 119.121C53.8213 118.888 68.936 96.5268 74.168 88.2211C80.4618 77.8456 87.3401 67.7245 93.8171 57.4378C97.6539 51.3393 97.4794 51.5716 101.374 46.17C103.816 42.7432 104.688 41.175 104.397 40.3037C104.223 39.6648 103.816 39.1421 103.583 39.1421C103.351 39.1421 101.956 38.387 100.561 37.3997C99.1653 36.4703 97.5957 35.6572 97.1307 35.6572C96.6656 35.6572 94.5728 38.0386 92.48 40.9426Z" fill="black"/>
<path d="M130.615 41.0588C125.55 53.1476 118.533 64.0352 112.013 75.327C111.141 76.8952 110.269 77.9988 110.153 77.8826C109.978 77.7084 109.455 74.1073 108.99 69.8673C108.467 65.5693 107.943 60.8647 107.769 59.3545C107.478 56.9732 107.13 56.4504 104.862 54.8242C103.467 53.7787 101.956 53.0817 101.549 53.256C101.142 53.4302 99.049 56.3924 96.84 59.8773C86.2174 76.3555 75.8414 92.8425 65.5061 109.479C63.4714 112.79 61.9018 115.752 62.0762 115.984C62.5413 116.681 69.3429 119.876 70.3893 119.876C71.3776 119.876 74.5168 115.403 79.0512 107.388C84.9661 96.8 91.2426 85.9528 99 76.5848C100.087 80.7474 101 87.5 101.723 91.8803C102.188 92.5773 109.106 96.0622 110.094 96.0622C111.431 96.0622 126.023 73.0037 133.464 59.006C134.394 57.3798 135.208 56.102 135.324 56.2181C135.789 56.6828 141.603 81.019 143.056 88.802C145.033 99.0824 148.071 111.338 149.059 114.764V120H154.059H159V115C159 113.5 159.275 113.777 160.729 112.732C170.557 105.674 178.774 96.7087 188.865 89.9055C190.5 93.5 193.045 99.5926 194.213 102.161C195.376 104.716 197.353 109.131 198.573 112.035C201.189 118.191 202.43 120 204 120C205.221 120 211.383 116.689 211.383 116.05C211.383 115.644 207.235 106.575 203.224 97.2238C202.061 94.494 200.899 91.648 200.608 90.8348C200.375 90.0217 199.503 87.9307 198.69 86.0721L197.178 82.8195L201.538 79.1023C203.98 77.1275 208.223 73.5846 210.956 71.2613C218.804 64.8142 226.303 58.1348 227.001 57.0313C227.698 55.8696 227.001 54.4757 224.152 51.0488C222.641 49.3064 221.943 48.8417 221.303 49.3064C220.431 49.9453 204.968 62.8394 198.399 68.3572C196.132 70.332 193.923 72.0744 193.632 72.1325C192.993 72.3648 190.202 66.5567 188.109 60.6323C185.784 54.0691 181.308 43.5563 180.552 42.6851C179.913 42.0462 179.157 42.3366 175.785 44.2533C173.285 45.7053 171.483 47.2155 171.018 48.2609C170.553 49.1321 168.867 53.1398 167.181 57.1474C160.322 73.2941 154.566 86.5368 154.101 87.0014C153.811 87.2918 153.462 86.9433 153.287 86.1302C152.415 81.8902 151.02 75.7917 150.555 74.2815C150.265 73.2941 148.346 65.5112 146.253 56.9732C144.16 48.3771 142.184 40.8846 141.835 40.2457C141.254 39.1421 135.034 35.6572 133.638 35.6572C133.231 35.6572 131.836 38.0966 130.615 41.0588ZM182.296 73.875C183.401 76.2563 184.331 78.5215 184.331 78.87C184.331 79.2185 180.843 82.2387 176.599 85.6075C170.99 90.0438 165.552 94.6701 160.322 99.5471L158.694 100.941L159.624 98.7339C160.147 97.5142 160.787 96.0622 161.077 95.5394C161.426 95.0167 162.705 91.8803 163.984 88.5116C165.321 85.1428 167.007 81.019 167.763 79.3346C168.943 76.8919 175 62.5 176.343 59.1263C178.316 64.0272 180.113 69.0542 182.296 73.875Z" fill="black"/>
<path d="M149.253 134.791C148.77 135.298 148.687 137.677 148.913 142.858C149.455 155.662 149.676 168.638 149.227 178.154C148.779 187.67 148.65 188.014 142.908 190.893C136.632 194.045 128.025 193.977 124.881 190.729C121.006 186.758 119.039 174.775 119.563 158.114C119.93 147.607 119.876 147.489 114.857 147.953C109.486 148.521 109.877 147.314 109.636 164.218C109.447 175.771 108.394 194.633 120.611 201.39C127.401 205.172 138.168 205.025 146.802 200.967C156.873 196.283 160.204 187.456 160.082 176.824C160.425 162.982 159.946 158.156 159.728 144.317C159.625 137.281 159.445 135.763 158.604 134.862C156.5 134 152 134 149.253 134.791Z" fill="black"/>
<path d="M79.0992 120.626C70.3016 123.556 63.7821 133.936 57.8806 140.606L51.3696 147.866L43.9867 140.083L36.6038 132.242L34.4528 134.159C33.2902 135.204 31.7206 136.831 30.9648 137.76C29.1627 139.909 29.2208 140.025 38.3478 149.667C42.2427 153.79 45.44 157.508 45.44 157.972C45.44 158.379 44.2192 160.528 42.7659 162.793C35.2667 174.235 31.488 182.947 31.488 189.046C31.488 192.996 33.1158 197.236 35.6736 200.023C37.592 202.114 38.8128 202.811 42.0683 203.799C45.7307 204.844 46.6027 204.902 49.9744 204.321C56.3691 203.218 57.4155 202.521 65.6704 193.983L73.344 186.026L76.2507 189.22C77.8784 190.963 80.727 194.39 82.7035 196.771C89.8539 205.715 91.656 207.806 92.3536 207.806C93.4 207.806 97.76 203.102 98.167 201.534C99.1947 197.426 87.7687 186.637 85.2614 183.819L80.2619 178.127C85.0934 171.343 90.0529 164.281 93.5163 156.694C96.9034 149.003 103.893 138.546 101.306 129.977C100.492 127.189 97.2368 124.053 93.2838 122.136C89.7958 120.51 82.0059 119.638 79.0992 120.626ZM90.784 135.146C90.784 145.227 82.1481 155.186 77.1808 163.664C75.0461 167.184 74 168.5 73.0261 169.356C69.5 167 60.5 158.5 58.8107 155.707C61.8918 152 64.5622 148.465 66.1355 146.763C70.0304 142.232 78.8086 133.113 80.1456 132.184C82.8528 130.476 90.784 130.604 90.784 135.146ZM66.0192 178.882L58.5782 186.026C50.6139 193.634 49.1024 194.448 45.5563 193.228C43.4054 192.473 42.5334 191.195 42.5334 188.698C42.5334 185.155 45.9632 177.255 50.8464 169.356L53.288 165.523C57.7615 169.757 61.8726 174.33 66.0192 178.882Z" fill="black"/>
<path d="M209.908 132.122C209.346 132.655 207.919 134.914 206.702 137.173L204.523 141.304L207.449 143.73C211.895 147.44 211.943 147.472 215.022 142.824C219.192 136.529 219.192 136.738 214.685 133.753C211.147 131.409 210.792 131.314 209.908 132.122Z" fill="black"/>
<path d="M202.718 149.42L200.361 148.137L194.714 156.031C188.152 165.2 166.827 198.081 166.991 198.886C169.075 200.267 173.502 203.006 174.728 203.891L191.07 179.534C200.035 166.104 207.588 154.595 207.859 153.87C208.306 152.563 208.258 152.531 202.718 149.42Z" fill="black"/>
<path d="M222.003 278.045C220.549 276.941 216.131 272.875 212.12 269.1C208.109 265.267 201.54 259.11 197.412 255.393C190.843 249.41 189.913 248.713 188.983 249.41C188.46 249.875 185.902 252.024 183.286 254.289C180.728 256.496 176.659 259.923 174.333 261.84C172.008 263.757 168.52 266.661 166.543 268.229C164.625 269.855 161.079 272.527 158.754 274.211C154.684 277.115 154.394 277.232 150.731 277.232C148.231 277.232 146.894 276.999 146.72 276.535C146.604 276.128 146.371 262.072 146.197 245.287C146.064 232.526 145.497 219.756 145.5 207H155C161.394 211.426 166.965 216.669 173.171 221.357C175.554 223.158 180.205 227.049 183.518 230.069L189.448 235.587L196.308 228.966C209.039 216.536 216.131 210.728 217.817 211.309C218.34 211.483 219.852 212.529 221.073 213.574L223.398 215.549L217.178 222.17C213.806 225.771 207.993 231.754 204.33 235.413C200.61 239.072 197.587 242.208 197.587 242.441C197.587 242.673 200.668 245.577 204.388 248.888C208.109 252.14 215.027 258.587 219.677 263.118C224.328 267.648 228.804 271.946 229.676 272.701L231.304 274.037L228.63 277.115C227.177 278.742 225.665 280.136 225.316 280.136C224.909 280.136 223.456 279.206 222.003 278.045ZM174.159 248.888C181.774 242.325 181.833 242.208 180.844 240.989C179.217 238.898 172.589 232.915 168.229 229.605C166.02 227.92 162.474 225.016 160.323 223.158L156.545 219.789L156.603 239.943C156.661 251.037 156.777 260.853 156.835 261.724C156.893 263.292 156.951 263.292 161.718 259.459C164.334 257.31 169.973 252.547 174.159 248.888Z" fill="black"/>
<path d="M124.559 210.013C122.663 213.803 121.625 217.93 119.792 221.746C115.248 230.669 112.32 240.318 107.7 249.219L104.735 254.911C102.008 247.758 99.2284 240.655 96.7131 233.42C93.6901 224.592 89.6789 215.357 88.0512 213.266C87.6443 212.801 86.5397 212.976 83.9237 213.905C81.1914 214.892 80.0288 215.705 78.808 217.448C77.9941 218.668 75.4944 222.327 73.2853 225.521C63.0204 240.766 51.5142 255.588 40.44 270.244C35.9948 276.126 31.7145 282.141 27.1856 287.959C26.5461 288.83 26.6624 289.237 27.9413 290.747C29.4926 292.629 31.5895 293.852 33.6384 295.103L35.2661 293.128C36.1963 292.025 38.4053 289.121 40.2656 286.623C48.9434 274.702 57.809 262.922 66.1931 250.787C68.7509 247.128 72.2971 242.307 74.041 240.1C75.3898 238.393 83.6984 226.37 84.1562 227.148C90.1514 238.129 93.5329 252.294 97.4688 264.262C99.6197 270.535 100.201 271.696 101.189 271.696C102.991 271.696 108.689 269.431 108.979 268.618C109.095 268.269 111.828 262.81 115.025 256.595C120.523 245.909 125.428 234.72 129.733 223.488C131.273 219.683 134.004 215.26 134.267 211.059C134.325 209.549 134.035 209.258 131.419 208.329C126.768 206.703 126.129 206.819 124.559 210.013Z" fill="black"/>
</svg>
