<svg width="583" height="110" viewBox="0 0 583 110" fill="none" xmlns="http://www.w3.org/2000/svg">
<rect width="583" height="110" fill="white"/>
<path d="M72.48 10.9426C68.4107 16.6346 59.1674 30.7485 54.3424 38.7638C52.7146 41.4936 50.7381 44.5719 49.9824 45.5593L48.5872 47.476L41.8437 39.7512C35.4491 32.4909 24.2875 20.3519 18.2997 14.1952L15.5675 11.3492L11.9051 14.3695C9.87039 16.0538 8.18452 17.5639 8.06826 17.7963C7.89386 18.319 13.9397 25.5211 21.6133 33.8268C24.8107 37.3117 29.8101 42.8876 32.6587 46.1982C35.5653 49.5089 38.8789 53.3423 40.0997 54.7943L42.3669 57.3499L40.3323 60.0798C36.6699 65.1909 24.8107 83.022 24.8107 83.4867C24.8107 84.2417 32.4261 89.411 33.1819 89.1206C33.8213 88.8883 48.936 66.5268 54.168 58.2211C60.4618 47.8456 67.3401 37.7245 73.8171 27.4378C77.6539 21.3393 77.4794 21.5716 81.3744 16.17C83.816 12.7432 84.688 11.175 84.3973 10.3037C84.2229 9.66484 83.816 9.1421 83.5834 9.1421C83.3509 9.1421 81.9557 8.38704 80.5605 7.39965C79.1653 6.47034 77.5957 5.6572 77.1307 5.6572C76.6656 5.6572 74.5728 8.03855 72.48 10.9426Z" fill="black"/>
<path d="M113.615 11.0588C108.551 23.1476 101.533 34.0352 95.0128 45.327C94.1408 46.8952 93.2688 47.9988 93.1525 47.8826C92.9781 47.7084 92.4549 44.1073 91.9899 39.8673C91.4667 35.5693 90.9435 30.8647 90.7691 29.3545C90.4784 26.9732 90.1296 26.4504 87.8624 24.8242C86.4672 23.7787 84.9557 23.0817 84.5488 23.256C84.1419 23.4302 82.0491 26.3924 79.84 29.8773C69.2174 46.3555 58.8414 62.8425 48.5061 79.479C46.4715 82.7897 44.9019 85.7519 45.0763 85.9842C45.5413 86.6812 52.3429 89.8757 53.3893 89.8757C54.3776 89.8757 57.5168 85.4034 62.0512 77.3881C67.9661 66.8 74.2426 55.9528 82 46.5848C83.0867 50.7474 84 57.5 84.7232 61.8803C85.1883 62.5773 92.1061 66.0622 93.0944 66.0622C94.4315 66.0622 109.023 43.0037 116.464 29.006C117.394 27.3798 118.208 26.102 118.324 26.2181C118.789 26.6828 124.603 51.019 126.056 58.802C128.033 69.0824 131.071 81.3377 132.059 84.7645V90H137.059H142V85C142 83.5 142.275 83.7771 143.729 82.7316C153.557 75.6735 161.774 66.7087 171.865 59.9055C173.5 63.5 176.045 69.5926 177.213 72.1608C178.376 74.7163 180.353 79.1306 181.573 82.0346C184.189 88.1913 185.43 90 187 90C188.221 90 194.383 86.6893 194.383 86.0504C194.383 85.6439 190.235 76.575 186.224 67.2238C185.061 64.494 183.899 61.648 183.608 60.8348C183.375 60.0217 182.503 57.9307 181.69 56.0721L180.178 52.8195L184.538 49.1023C186.98 47.1275 191.223 43.5846 193.956 41.2613C201.804 34.8142 209.303 28.1348 210.001 27.0313C210.698 25.8696 210.001 24.4757 207.152 21.0488C205.641 19.3064 204.943 18.8417 204.303 19.3064C203.431 19.9453 187.968 32.8394 181.399 38.3572C179.132 40.332 176.923 42.0744 176.632 42.1325C175.993 42.3648 173.202 36.5567 171.109 30.6323C168.784 24.0691 164.308 13.5563 163.552 12.6851C162.913 12.0462 162.157 12.3366 158.785 14.2533C156.285 15.7053 154.483 17.2155 154.018 18.2609C153.553 19.1322 151.867 23.1398 150.181 27.1474C143.322 43.2941 137.566 56.5368 137.101 57.0014C136.811 57.2918 136.462 56.9433 136.287 56.1302C135.415 51.8902 134.02 45.7917 133.555 44.2815C133.265 43.2941 131.346 35.5112 129.253 26.9732C127.161 18.3771 125.184 10.8846 124.835 10.2457C124.254 9.1421 118.034 5.6572 116.638 5.6572C116.231 5.6572 114.836 8.09662 113.615 11.0588ZM165.296 43.875C166.401 46.2563 167.331 48.5215 167.331 48.87C167.331 49.2185 163.843 52.2387 159.599 55.6075C153.99 60.0438 148.552 64.6701 143.322 69.5471L141.694 70.941L142.624 68.7339C143.147 67.5142 143.787 66.0622 144.077 65.5394C144.426 65.0167 145.705 61.8803 146.984 58.5116C148.321 55.1428 150.007 51.019 150.763 49.3346C151.943 46.8919 158 32.5 159.343 29.1263C161.316 34.0272 163.113 39.0542 165.296 43.875Z" fill="black"/>
<path d="M320.213 21.5826C319.73 22.0888 319.647 24.4687 319.873 29.649C320.415 42.4537 320.637 55.4297 320.188 64.9453C319.739 74.4608 319.611 74.805 313.868 77.6847C307.592 80.8363 298.985 80.7682 295.841 77.5201C291.966 73.5491 290 61.5664 290.524 44.9051C290.891 34.3987 290.837 34.2806 285.818 34.7446C280.446 35.3125 280.838 34.1057 280.596 51.0094C280.407 62.5624 279.355 81.4239 291.572 88.1808C298.362 91.963 309.128 91.816 317.763 87.7587C327.833 83.0743 331.164 74.2472 331.043 63.6157C331.386 49.7734 330.907 44.9469 330.689 31.1077C330.586 24.072 330.406 22.5546 329.565 21.6535C327.461 20.7912 322.961 20.7912 320.213 21.5826Z" fill="black"/>
<path d="M259.06 7.41702C250.262 10.3469 243.743 20.7276 237.841 27.3971L231.33 34.6573L223.947 26.8744L216.564 19.0334L214.413 20.9501C213.251 21.9955 211.681 23.6218 210.925 24.5511C209.123 26.7001 209.181 26.8163 218.308 36.4579C222.203 40.5817 225.4 44.2989 225.4 44.7636C225.4 45.1701 224.18 47.3191 222.726 49.5843C215.227 61.0264 211.448 69.7387 211.448 75.8373C211.448 79.7868 213.076 84.0268 215.634 86.8147C217.552 88.9056 218.773 89.6026 222.029 90.59C225.691 91.6355 226.563 91.6936 229.935 91.1128C236.33 90.0092 237.376 89.3122 245.631 80.7742L253.304 72.817L256.211 76.0115C257.839 77.754 260.687 81.1808 262.664 83.5621C269.814 92.5067 271.616 94.5977 272.314 94.5977C273.36 94.5977 277.72 89.893 278.127 88.3248C279.155 84.2174 267.729 73.4282 265.222 70.6099L260.222 64.9179C265.054 58.1338 270.013 51.0718 273.477 43.4858C276.864 35.7947 283.853 25.3371 281.267 16.7682C280.453 13.9803 277.197 10.8438 273.244 8.92714C269.756 7.30085 261.966 6.42963 259.06 7.41702ZM270.744 21.9374C270.744 32.0186 262.109 41.9773 257.141 50.4556C255.007 53.9748 253.96 55.2913 252.987 56.1476C249.46 53.7913 240.46 45.2913 238.771 42.4984C241.852 38.7913 244.523 35.2567 246.096 33.5538C249.991 29.0234 258.769 19.9046 260.106 18.9753C262.813 17.267 270.744 17.3956 270.744 21.9374ZM245.98 65.673L238.539 72.817C230.574 80.4257 229.063 81.2389 225.517 80.0191C223.366 79.2641 222.494 77.9863 222.494 75.4888C222.494 71.9458 225.924 64.0467 230.807 56.1476L233.248 52.3142C237.722 56.5484 241.833 61.1216 245.98 65.673Z" fill="black"/>
<path d="M373.869 18.9128C373.306 19.446 371.879 21.7056 370.662 23.9647L368.484 28.0953L371.41 30.5209C375.855 34.2316 375.904 34.2637 378.983 29.615C383.152 23.32 383.153 23.5295 378.645 20.544C375.107 18.2006 374.752 18.1049 373.869 18.9128Z" fill="black"/>
<path d="M366.679 36.2108L364.321 34.9279L358.674 42.822C352.113 51.9914 330.787 84.8723 330.951 85.6776C333.035 87.0581 337.462 89.7975 338.689 90.6823L355.031 66.3248C363.996 52.8952 371.548 41.3867 371.82 40.6609C372.267 39.3546 372.218 39.3225 366.679 36.2108Z" fill="black"/>
<path d="M548.962 89.5699C547.285 88.2873 542.187 83.562 537.559 79.1743C532.931 74.719 525.352 67.5636 520.59 63.2433C513.01 56.2904 511.937 55.4804 510.864 56.2904C510.26 56.8305 507.309 59.3281 504.291 61.9608C501.34 64.5259 496.644 68.5086 493.961 70.7363C491.278 72.9639 487.254 76.3391 484.974 78.1617C482.76 80.0518 478.669 83.157 475.986 85.1146C471.29 88.4898 470.955 88.6248 466.729 88.6248C463.845 88.6248 462.303 88.3548 462.101 87.8148C461.967 87.3422 461.699 71.0063 461.498 51.4977C461.345 36.6667 460.691 21.8259 460.694 7L471.655 7C479.032 12.1443 485.46 18.2376 492.62 23.686C495.37 25.7787 500.736 30.3014 504.559 33.8116L511.401 40.2245L519.315 32.5291C534.004 18.0832 542.187 11.3328 544.133 12.0079C544.736 12.2104 546.48 13.4255 547.889 14.6405L550.572 16.9357L543.395 24.6311C539.505 28.8163 532.797 35.7692 528.571 40.022C524.279 44.2747 520.791 47.9199 520.791 48.19C520.791 48.46 524.346 51.8352 528.639 55.6829C532.931 59.4631 540.913 66.956 546.279 72.2214C551.645 77.4867 556.81 82.4819 557.816 83.3595L559.694 84.9121L556.608 88.4898C554.931 90.3799 553.188 92 552.785 92C552.316 92 550.639 90.9199 548.962 89.5699ZM493.76 55.6829C502.547 48.055 502.614 47.9199 501.474 46.5024C499.596 44.0722 491.949 37.1193 486.919 33.2716C484.37 31.314 480.278 27.9388 477.797 25.7787L473.437 21.8634L473.504 45.2873C473.571 58.1805 473.705 69.5887 473.772 70.6013C473.839 72.4239 473.906 72.4239 479.406 67.9686C482.425 65.471 488.931 59.9356 493.76 55.6829Z" fill="black"/>
<path d="M447.753 8.01345C445.856 11.8026 444.819 15.9299 442.986 19.746C438.442 28.6687 435.513 38.3176 430.894 47.2186L427.929 52.9106C425.202 45.7581 422.422 38.6552 419.907 31.4204C416.884 22.592 412.873 13.357 411.245 11.266C410.838 10.8014 409.733 10.9756 407.117 11.9049C404.385 12.8923 403.223 13.7055 402.002 15.4479C401.188 16.6676 398.688 20.3268 396.479 23.5213C386.214 38.7663 374.708 53.5875 363.634 68.2442C359.189 74.1258 354.908 80.1413 350.379 85.9591C349.74 86.8303 349.856 87.2369 351.135 88.747C352.686 90.629 354.783 91.8521 356.832 93.1031L358.46 91.1284C359.39 90.0248 361.599 87.1207 363.459 84.6232C372.137 72.7019 381.003 60.9221 389.387 48.7868C391.945 45.1277 395.491 40.3069 397.235 38.0998C398.584 36.3928 406.892 24.3699 407.35 25.1476C413.345 36.129 416.727 50.2937 420.663 62.2618C422.813 68.5346 423.395 69.6962 424.383 69.6962C426.185 69.6962 431.882 67.431 432.173 66.6179C432.289 66.2694 435.021 60.8097 438.219 54.595C443.717 43.9085 448.621 32.7195 452.927 21.4884C454.466 17.6825 457.198 13.2604 457.461 9.05892C457.519 7.5488 457.228 7.25839 454.612 6.32908C449.962 4.70279 449.322 4.81896 447.753 8.01345Z" fill="black"/>
</svg>
